<svg viewBox="0 0 417 416" xmlns="http://www.w3.org/2000/svg"><path d="m203.857038 214.541347c67.078923.524054 133.109737.524054 198.878524.524054 10.743109 0 13.363379 4.192433 13.363379 13.887433-1.048108 29.347029-.524054 58.170003-.524054 87.255005v87.255005c0 10.219054-3.144324 12.315271-12.839325 10.743108-64.982706-9.695-130.751493-18.60392-196.258254-27.774866-11.791216-1.572162-15.983649-5.764595-15.983649-18.60392 1.048108-46.378786.524054-93.0196 0-139.92244 0-10.219055 3.144324-13.363379 13.363379-13.363379zm-191.5417671.524054c23.4283002.739841 45.9281723.783361 69.028792.785921l78.2304051.00016c7.860811 0 11.267163 2.620271 11.267163 10.743109v145.687035c0 8.384865-3.668379 9.170946-11.267163 8.384865-48.999057-7.336757-97.9981133-14.411487-146.735143-21.22419-9.69500051-1.572163-12.839325-4.716487-12.839325-14.935542.52405408-38.780002.52405408-77.560004 0-117.126087 0-9.695001 2.62027041-12.315271 12.3152709-12.315271zm402.8529511-205.82493478-.014174.40043339-.023816.60281179c-.005474.134139-.011003.2683555-.016462.4025637l-.016034.4025134c-.007782.2011581-.015116.402104-.021571.6025476l-.011608.4001316c-.001697.0665483-.003264.1330193-.004685.1994023l-.006651.3971554c-.001549.1319757-.002388.2635133-.002388.3945268 0 41.9243266.524054 84.6347343 0 126.5590608 0 15.459596-.524054 30.919191 0 46.378786.524054 9.695001-3.144324 12.315271-12.315271 12.315271-32.491353-.524054-65.50676 0-98.522167 0s-66.030815-.524054-99.046222 0c-10.219054 0-14.411487-2.096216-14.411487-13.887433.524054-47.426894.524054-94.0677076 0-140.970548 0-9.1709464 3.144324-12.3152709 11.791217-13.8874332 67.602976-9.6950005 135.205953-19.127974 202.80893-29.3470286 9.550885-1.27345142 9.990226 3.64207106 9.812389 9.03723902zm-243.278858 37.04761858.000375 139.6923142c0 10.219055-4.192433 11.791217-13.363379 11.791217-24.368515 0-48.999057.524054-72.8435175.524054h-72.8435175c-9.17094642 0-12.31527092-3.144324-12.31527092-12.839325.52405408-38.255948.52405408-76.511896 0-115.0298708 0-9.1709464 2.62027041-12.3152709 12.31527092-13.8874331 48.9990567-6.288649 97.998113-13.3633791 146.735143-21.2241904 11.146011-1.5552573 12.29155 2.0179324 12.314896 10.9732341z" fill="#00aaf2" transform="translate(0 .898963)"/></svg>
